<svg xmlns="http://www.w3.org/2000/svg" width="1200" height="630" viewBox="0 0 1200 630">
  <defs>
    <radialGradient id="bg" cx="30%" cy="30%" r="90%">
      <stop offset="0%" stop-color="#ffffff" stop-opacity="0.10"/>
      <stop offset="35%" stop-color="#b46bff" stop-opacity="0.25"/>
      <stop offset="70%" stop-color="#6223d2" stop-opacity="1"/>
      <stop offset="100%" stop-color="#120022" stop-opacity="1"/>
    </radialGradient>
    <linearGradient id="holo" x1="0" y1="0" x2="1" y2="1">
      <stop offset="0%" stop-color="#ff4fd8"/>
      <stop offset="30%" stop-color="#4f7dff"/>
      <stop offset="60%" stop-color="#00ffd5"/>
      <stop offset="100%" stop-color="#fff27a"/>
    </linearGradient>
    <filter id="softGlow" x="-20%" y="-20%" width="140%" height="140%">
      <feGaussianBlur stdDeviation="10" result="b"/>
      <feColorMatrix in="b" type="matrix"
        values="1 0 0 0 0
                0 1 0 0 0
                0 0 1 0 0
                0 0 0 0.7 0" result="g"/>
      <feMerge>
        <feMergeNode in="g"/>
        <feMergeNode in="SourceGraphic"/>
      </feMerge>
    </filter>
  </defs>

  <rect width="1200" height="630" fill="url(#bg)"/>

  <!-- Subtle triangle field -->
  <g opacity="0.22" stroke="url(#holo)" stroke-width="4" fill="none">
    <path d="M110 410 L200 250 L290 410 Z"/>
    <path d="M320 470 L420 300 L520 470 Z"/>
    <path d="M570 420 L660 260 L750 420 Z"/>
    <path d="M820 480 L920 310 L1020 480 Z"/>
    <path d="M220 260 L310 100 L400 260 Z"/>
    <path d="M470 230 L560 70 L650 230 Z"/>
    <path d="M720 260 L810 100 L900 260 Z"/>
  </g>

  <!-- Logo/text -->
  <g filter="url(#softGlow)">
    <text x="80" y="290"
          font-family="Monoton, system-ui, -apple-system, Segoe UI, sans-serif"
          font-size="92"
          fill="url(#holo)"
          letter-spacing="6">VoidVision</text>
    <text x="86" y="360"
          font-family="system-ui, -apple-system, Segoe UI, sans-serif"
          font-size="34"
          fill="#ffffff"
          opacity="0.85">Enter the Void • Random video portal • Holographic geometry</text>
  </g>
</svg>

